<svg width="96" height="96" viewBox="0 0 96 96" fill="none" xmlns="http://www.w3.org/2000/svg">
  <rect x="14" y="20" width="68" height="56" rx="20" fill="url(#paint0_linear)" opacity="0.18" />
  <path d="M36 34h24c7.732 0 14 6.268 14 14v8c0 7.732-6.268 14-14 14H36c-7.732 0-14-6.268-14-14v-8c0-7.732 6.268-14 14-14Z" fill="url(#paint1_linear)" stroke="url(#paint2_linear)" stroke-width="3"/>
  <path d="M38 56h-4v-4m0 0v-4h4m-4 4h4" stroke="white" stroke-width="4" stroke-linecap="round" stroke-linejoin="round" opacity="0.92"/>
  <circle cx="58" cy="50" r="4" fill="#FACC15"/>
  <circle cx="66" cy="58" r="4" fill="#22D3EE"/>
  <path d="M44 40h8" stroke="url(#paint3_linear)" stroke-width="4" stroke-linecap="round" opacity="0.6"/>
  <defs>
    <linearGradient id="paint0_linear" x1="14" y1="20" x2="82" y2="76" gradientUnits="userSpaceOnUse">
      <stop stop-color="#6366F1" stop-opacity="0.85"/>
      <stop offset="1" stop-color="#A855F7" stop-opacity="0.35"/>
    </linearGradient>
    <linearGradient id="paint1_linear" x1="24" y1="32" x2="72" y2="72" gradientUnits="userSpaceOnUse">
      <stop stop-color="#4C1D95"/>
      <stop offset="1" stop-color="#4338CA"/>
    </linearGradient>
    <linearGradient id="paint2_linear" x1="24" y1="32" x2="72" y2="72" gradientUnits="userSpaceOnUse">
      <stop stop-color="#C4B5FD"/>
      <stop offset="1" stop-color="#DDD6FE"/>
    </linearGradient>
    <linearGradient id="paint3_linear" x1="44" y1="40" x2="52" y2="40" gradientUnits="userSpaceOnUse">
      <stop stop-color="#FDE68A"/>
      <stop offset="1" stop-color="#F59E0B"/>
    </linearGradient>
  </defs>
</svg>
