<svg width="96" height="96" viewBox="0 0 96 96" fill="none" xmlns="http://www.w3.org/2000/svg">
  <rect x="14" y="18" width="68" height="60" rx="16" fill="url(#paint0_linear)" opacity="0.16" />
  <path d="M26 62V50c0-2.2 1.8-4 4-4h4c2.2 0 4 1.8 4 4v12c0 2.2-1.8 4-4 4h-4c-2.2 0-4-1.8-4-4Zm18 0V38c0-2.2 1.8-4 4-4h4c2.2 0 4 1.8 4 4v24c0 2.2-1.8 4-4 4h-4c-2.2 0-4-1.8-4-4Zm18 0V30c0-2.2 1.8-4 4-4h4c2.2 0 4 1.8 4 4v32c0 2.2-1.8 4-4 4h-4c-2.2 0-4-1.8-4-4Z" fill="url(#paint1_linear)" stroke="url(#paint2_linear)" stroke-width="2" stroke-linejoin="round"/>
  <path d="M26 28h44" stroke="url(#paint3_linear)" stroke-width="6" stroke-linecap="round" opacity="0.32"/>
  <defs>
    <linearGradient id="paint0_linear" x1="14" y1="18" x2="82" y2="78" gradientUnits="userSpaceOnUse">
      <stop stop-color="#3B82F6" stop-opacity="0.8"/>
      <stop offset="1" stop-color="#60A5FA" stop-opacity="0.4"/>
    </linearGradient>
    <linearGradient id="paint1_linear" x1="26" y1="26" x2="70" y2="70" gradientUnits="userSpaceOnUse">
      <stop stop-color="#2563EB"/>
      <stop offset="1" stop-color="#60A5FA"/>
    </linearGradient>
    <linearGradient id="paint2_linear" x1="26" y1="26" x2="70" y2="70" gradientUnits="userSpaceOnUse">
      <stop stop-color="#93C5FD"/>
      <stop offset="1" stop-color="#BFDBFE"/>
    </linearGradient>
    <linearGradient id="paint3_linear" x1="26" y1="28" x2="70" y2="28" gradientUnits="userSpaceOnUse">
      <stop stop-color="#E0F2FE"/>
      <stop offset="1" stop-color="#BFDBFE"/>
    </linearGradient>
  </defs>
</svg>
